# xmcd
#
# Track frame offsets:
#	150
#	7624
#	26802
#	52857
#	71304
#	75337
#	94670
#	98165
#	118915
#	138002
#	156069
#	173961
#	192907
#	210123
#	231531
#	248375
#	270789
#	274266
#	297067
#	321048
#
# Disc length: 4670 seconds
#
# Revision: 78
# Processed by: cddbd v1.5.2PL0 Copyright (c) Steve Scherf et al.
# Submitted via: EasyCDDAExtractor 15.3.0.1
#
DISCID=f4123c14
DTITLE=Christina Aguilera - Stripped
DYEAR=2002
DGENRE=Pop
TTITLE0=Stripped Intro
TTITLE1=Can't Hold Us Down (Featuring Lil' Kim)
TTITLE2=Walk Away
TTITLE3=Fighter
TTITLE4=Primer Amor Interlude
TTITLE5=Infatuation
TTITLE6=Loves Embrace Interlude
TTITLE7=Loving Me 4 Me
TTITLE8=Impossible
TTITLE9=Underappreciated
TTITLE10=Beautiful
TTITLE11=Make Over
TTITLE12=Cruz
TTITLE13=Soar
TTITLE14=Get Mine, Get Yours
TTITLE15=Dirrty (Featuring Redman)
TTITLE16=Stripped Pt. 2
TTITLE17=The Voice Within
TTITLE18=I'm Ok
TTITLE19=Keep On Singin' My Song
EXTD=YEAR: 2002
EXTT0=
EXTT1=
EXTT2=
EXTT3=
EXTT4=
EXTT5=
EXTT6=
EXTT7=
EXTT8=
EXTT9=
EXTT10=
EXTT11=
EXTT12=
EXTT13=
EXTT14=
EXTT15=
EXTT16=
EXTT17=
EXTT18=
EXTT19=
PLAYORDER=
